# xmcd
#
# Track frame offsets: 
#        182
#        17977
#        40505
#        59827
#        80362
#        102595
#        125160
#        146765
#        164530
#        188695
#        207742
#        225920
#        241960
#        259207
#        279497
#        310900
#
# Disc length: 4342 seconds
#
# Revision: 5
# Processed by: cddbd v1.5.2PL0 Copyright (c) Steve Scherf et al.
# Submitted via: ExactAudioCopyFreeDBPlugin 1.0
#
DISCID=ed10f410
DTITLE=Various Artist - All my Love
DYEAR=1993
DGENRE=Pop
TTITLE0=Michael Bolton - That's what love is all about
TTITLE1=Wham - Careless Whisper
TTITLE2=Gloria Estefan and Miami Sound Machine - I want you so bad
TTITLE3=Ten Sharp - You
TTITLE4=Sade - Smooth operator
TTITLE5=Earth Wind and Fire - Reasons
TTITLE6=Reo Speedwagon - Can't fight this feeling
TTITLE7=Bangles - Eternal Flame
TTITLE8=Paul Young - Everytime you go away
TTITLE9=Berlin - Take my breath away
TTITLE10=Cyndi Lauper - Time after time
TTITLE11=The Outfield - All the love in the world
TTITLE12=Steve Perry - Oh Sherrie
TTITLE13=Europe - Carrie
TTITLE14=Bonnie Tyler - Total eclipse of the heart
TTITLE15=Journey - Open Arms
EXTD=YEAR: 1993 ID3G: 13
EXTT0=
EXTT1=
EXTT2=
EXTT3=
EXTT4=
EXTT5=
EXTT6=
EXTT7=
EXTT8=
EXTT9=
EXTT10=
EXTT11=
EXTT12=
EXTT13=
EXTT14=
EXTT15=
PLAYORDER=
